<?xml version="1.0" ?><svg id="Layer_1" style="enable-background:new 0 0 70 70;" version="1.1" viewBox="0 0 70 70" xml:space="preserve" xmlns="http://www.w3.org/2000/svg" xmlns:xlink="http://www.w3.org/1999/xlink"><style type="text/css">
	.st0{fill:#D7D2D1;}
	.st1{fill:#10bbd5;}
</style><g><g><path class="st0" d="M16.2549744,2v52.3099976h-4.4699707c-2.0700073,0-4.0900269,0.8399658-5.5300293,2.289978    c-0.1099854,0.1099854-0.2199707,0.2200317-0.3099976,0.3400269V7.2000122C5.9449768,4.3299561,8.2749939,2,11.144989,2    H16.2549744z"/><path class="st1" d="M58.8650208,2H18.2549744v52.3099976h45.8000488V7.2000122C64.0550232,4.3299561,61.7250061,2,58.8650208,2z     M25.5350037,16.7600098h12.9599609c0.5500488,0,1,0.4499512,1,1c0,0.5499878-0.4499512,1-1,1H25.5350037    c-0.5499878,0-1-0.4500122-1-1C24.5350037,17.2099609,24.9850159,16.7600098,25.5350037,16.7600098z M45.7049866,31.2699585    H25.5350037c-0.5499878,0-1-0.4499512-1-1c0-0.5499878,0.4500122-1,1-1h20.1699829c0.5499878,0,1,0.4500122,1,1    C46.7049866,30.8200073,46.2549744,31.2699585,45.7049866,31.2699585z M52.5749817,24.8499756h-27.039978    c-0.5499878,0-1-0.4500122-1-1c0-0.5599976,0.4500122-1,1-1h27.039978c0.5599976,0,1,0.4400024,1,1    C53.5749817,24.3999634,53.1349792,24.8499756,52.5749817,24.8499756z"/></g><g><path class="st0" d="M64.0550232,67c0,0.5499878-0.4500122,1-1,1H11.7850037    c-3.2200317,0-5.8400269-2.6199951-5.8400269-5.8500366c0-1.5499878,0.6300049-3.0499878,1.7200317-4.1300049    c1.0700073-1.0799561,2.5700073-1.7099609,4.1199951-1.7099609h49.2399902c0.5499878,0,1,0.4500122,1,1V66h1.0300293    C63.605011,66,64.0550232,66.4500122,64.0550232,67z"/></g></g></svg>