<?xml version="1.0" ?>
<svg baseProfile="tiny" height="24px" id="Layer_1" version="1.2" viewBox="0 0 24 24" width="24px" xml:space="preserve"
     xmlns="http://www.w3.org/2000/svg" xmlns:xlink="http://www.w3.org/1999/xlink">
	<style type="text/css">
		.st1{fill:#10bbd5;}
	</style>
    <g><circle class="st1" cx="12" cy="17" r="1.3"/></g>
    <path class="st1" d="M17,10h-1V8c0-2.206-1.794-4-4-4S8,5.794,8,8v2H7c-1.104,0-2,0.896-2,2v7c0,1.104,0.896,2,2,2h10c1.104,0,2-0.896,2-2v-7  C19,10.896,18.104,10,17,10z M10,8c0-1.104,0.896-2,2-2s2,0.896,2,2v2v1h-4v-1V8z M17,19H7v-7h1h2h4h2h1.003L17,19z"/>
</svg>
