<?xml version="1.0" encoding="UTF-8" standalone="no"?>
<svg
   xmlns:dc="http://purl.org/dc/elements/1.1/"
   xmlns:cc="http://creativecommons.org/ns#"
   xmlns:rdf="http://www.w3.org/1999/02/22-rdf-syntax-ns#"
   xmlns:svg="http://www.w3.org/2000/svg"
   xmlns="http://www.w3.org/2000/svg"
   xmlns:sodipodi="http://sodipodi.sourceforge.net/DTD/sodipodi-0.dtd"
   xmlns:inkscape="http://www.inkscape.org/namespaces/inkscape"
   id="Layer_1"
   version="1.1"
   viewBox="0 0 155 70"
   xml:space="preserve"
   sodipodi:docname="logo-two-lines.svg"
   inkscape:version="0.92.3 (2405546, 2018-03-11)"
   width="155"
   height="70"
   inkscape:export-filename="/media/fastdata/work/library/library-resources/resources/img/logo.svg.png"
   inkscape:export-xdpi="96"
   inkscape:export-ydpi="96"><metadata
   id="metadata3812"><rdf:RDF><cc:Work
       rdf:about=""><dc:format>image/svg+xml</dc:format><dc:type
         rdf:resource="http://purl.org/dc/dcmitype/StillImage" /><dc:title></dc:title></cc:Work></rdf:RDF></metadata><defs
   id="defs3810">

</defs><sodipodi:namedview
   pagecolor="#ffffff"
   bordercolor="#666666"
   borderopacity="1"
   objecttolerance="10"
   gridtolerance="10"
   guidetolerance="10"
   inkscape:pageopacity="0"
   inkscape:pageshadow="2"
   inkscape:window-width="1853"
   inkscape:window-height="1025"
   id="namedview3808"
   showgrid="false"
   showguides="false"
   inkscape:zoom="6.0285714"
   inkscape:cx="78.094589"
   inkscape:cy="46.270142"
   inkscape:window-x="67"
   inkscape:window-y="27"
   inkscape:window-maximized="1"
   inkscape:current-layer="Layer_1" /><style
   type="text/css"
   id="style3793">
	.st0{fill:#D7D2D1;}
	.st1{fill:#10BBD5;}
</style><g
   id="g3805"><g
     id="g3799"><path
       style="fill:#d7d2d1"
       inkscape:connector-curvature="0"
       class="st0"
       d="m 16.254974,2 v 52.309998 h -4.46997 c -2.0700076,0 -4.0900272,0.839965 -5.5300296,2.289978 -0.1099854,0.109985 -0.2199707,0.220031 -0.3099976,0.340026 V 7.2000122 C 5.9449768,4.3299561 8.2749939,2 11.144989,2 Z"
       id="path3795" /><path
       style="fill:#10bbd5"
       inkscape:connector-curvature="0"
       class="st1"
       d="M 58.865021,2 H 18.254974 V 54.309998 H 64.055023 V 7.2000122 C 64.055023,4.3299561 61.725006,2 58.865021,2 Z M 25.535004,16.76001 h 12.959961 c 0.550048,0 1,0.449951 1,1 0,0.549988 -0.449952,1 -1,1 H 25.535004 c -0.549988,0 -1,-0.450012 -1,-1 0,-0.550049 0.450012,-1 1,-1 z M 45.704987,31.269959 H 25.535004 c -0.549988,0 -1,-0.449952 -1,-1 0,-0.549988 0.450012,-1 1,-1 h 20.169983 c 0.549987,0 1,0.450012 1,1 0,0.550048 -0.450013,1 -1,1 z m 6.869995,-6.419983 H 25.535004 c -0.549988,0 -1,-0.450013 -1,-1 0,-0.559998 0.450012,-1 1,-1 h 27.039978 c 0.559997,0 1,0.440002 1,1 0,0.549987 -0.440003,1 -1,1 z"
       id="path3797" /></g><g
     id="g3803"><path
       style="fill:#d7d2d1"
       inkscape:connector-curvature="0"
       class="st0"
       d="m 64.055023,67 c 0,0.549988 -0.450012,1 -1,1 H 11.785004 c -3.220032,0 -5.8400272,-2.619995 -5.8400272,-5.850037 0,-1.549987 0.6300049,-3.049987 1.7200317,-4.130005 1.0700073,-1.079956 2.5700075,-1.70996 4.1199955,-1.70996 h 49.23999 c 0.549988,0 1,0.450012 1,1 V 66 h 1.030029 c 0.549988,0 1,0.450012 1,1 z"
       id="path3801" /></g></g>

<text
   xml:space="preserve"
   style="font-style:normal;font-weight:normal;font-size:40px;line-height:1.25;font-family:sans-serif;letter-spacing:0px;word-spacing:0px;fill:#D7D2D1;fill-opacity:1;stroke:none"
   x="67.866669"
   y="31.773001"
   id="text1575"><tspan
     sodipodi:role="line"
     id="tspan1573"
     x="67.866669"
     y="31.773001"
     style="font-style:normal;font-variant:normal;font-weight:600;font-stretch:normal;font-size:26.66666603px;font-family:FreeSans;-inkscape-font-specification:'FreeSans, Semi-Bold';font-variant-ligatures:normal;font-variant-caps:normal;font-variant-numeric:normal;font-feature-settings:normal;text-align:start;writing-mode:lr-tb;text-anchor:start">My</tspan></text>
<text
   xml:space="preserve"
   style="font-style:normal;font-weight:normal;font-size:40px;line-height:1.25;font-family:sans-serif;letter-spacing:0px;word-spacing:0px;fill:#10BBD5;fill-opacity:1;stroke:none"
   x="67.866669"
   y="57.053165"
   id="text1575-3"><tspan
     sodipodi:role="line"
     id="tspan1573-3"
     x="67.866669"
     y="57.053165"
     style="font-style:normal;font-variant:normal;font-weight:600;font-stretch:normal;font-size:26.66666603px;font-family:FreeSans;-inkscape-font-specification:'FreeSans, Semi-Bold';font-variant-ligatures:normal;font-variant-caps:normal;font-variant-numeric:normal;font-feature-settings:normal;text-align:start;writing-mode:lr-tb;text-anchor:start">Reads</tspan></text>
</svg>