<?xml version="1.0" ?>
<svg id="Layer_1" style="enable-background:new 0 0 70 70;" version="1.1" viewBox="0 0 70 70" xml:space="preserve"
     xmlns="http://www.w3.org/2000/svg" xmlns:xlink="http://www.w3.org/1999/xlink">
    <style type="text/css">
	    .st0{fill:#D7D2D1;}
	    .st1{fill:#10bbd5;}
    </style>
    <g>
        <path class="st0" d="M10.7800293,56.4350281H32.25l2.3400269,2.0299683V10.7550354V8.1850281c-0.9400024-1.0499878-2.2800293-1.6600342-3.7000122-1.6600342H10.7800293c-2.1000366,0-3.8099976,1.710022-3.8099976,3.8200073v42.2800293C6.9700317,54.7250061,8.6799927,56.4350281,10.7800293,56.4350281z M14.1900024,13.5050354h13.5700073c0.5499878,0,1,0.4400024,1,1c0,0.5499878-0.4500122,1-1,1H14.1900024c-0.5499878,0-1-0.4500122-1-1C13.1900024,13.9450378,13.6400146,13.5050354,14.1900024,13.5050354z M14.1900024,20.2850037h13.5700073c0.5499878,0,1,0.4500122,1,1s-0.4500122,1-1,1H14.1900024c-0.5499878,0-1-0.4500122-1-1S13.6400146,20.2850037,14.1900024,20.2850037z M14.1900024,27.065033h13.5700073c0.5499878,0,1,0.4500122,1,1c0,0.5599976-0.4500122,1-1,1H14.1900024c-0.5499878,0-1-0.4400024-1-1C13.1900024,27.5150452,13.6400146,27.065033,14.1900024,27.065033z M14.1900024,33.855011h13.5700073c0.5499878,0,1,0.4500122,1,1s-0.4500122,1-1,1H14.1900024c-0.5499878,0-1-0.4500122-1-1S13.6400146,33.855011,14.1900024,33.855011z M14.1900024,40.6350403h13.5700073c0.5499878,0,1,0.4499512,1,1c0,0.5599976-0.4500122,1-1,1H14.1900024c-0.5499878,0-1-0.4400024-1-1C13.1900024,41.0849915,13.6400146,40.6350403,14.1900024,40.6350403z M14.1900024,47.4250183h13.5700073c0.5499878,0,1,0.4500122,1,1s-0.4500122,1-1,1H14.1900024c-0.5499878,0-1-0.4500122-1-1S13.6400146,47.4250183,14.1900024,47.4250183z"/>
        <path class="st1" d="M68,12.6950378V60.065033c0,0.5499878-0.4500122,1-1,1H41.4400024c-0.7800293,0.7099609-2.8699951,2.3599854-5.5999756,2.4099731h-0.1400146c-0.3099976,0-0.6199951-0.0299683-0.9199829-0.0700073c-1.6000366-0.2199707-3.1600342-1-4.5900269-2.3399658H3c-0.5499878,0-1-0.4500122-1-1V12.6950378c0-0.5499878,0.4500122-1,1-1h1.9700317v40.9299927c0,3.2000122,2.6099854,5.8099976,5.8099976,5.8099976H31.5l3.25,2.8200073l1.7700195,0.0599976l3.2199707-2.9700317l19.5599976,0.1000366c3.210022,0,5.8200073-2.6100464,5.8200073-5.8099976V11.6950378H67C67.5499878,11.6950378,68,12.14505,68,12.6950378z"/>
        <path class="st0" d="M59.2999878,56.4450378c2.1099854,0,3.8200073-1.710022,3.8200073-3.8099976V10.3450012c0-2.1099854-1.710022-3.8200073-3.8200073-3.8200073H39.9500122c-1.1699829,0-2.3099976,0.4200439-3.2000122,1.1700439v50.8499756l2.1599731-2.2000122L59.2999878,56.4450378z M42.2299805,13.5050354H56.25c0.5599976,0,1,0.4400024,1,1c0,0.5499878-0.4400024,1-1,1H42.2299805c-0.5499878,0-1-0.4500122-1-1C41.2299805,13.9450378,41.6799927,13.5050354,42.2299805,13.5050354z M42.2299805,20.2850037H56.25c0.5599976,0,1,0.4500122,1,1s-0.4400024,1-1,1H42.2299805c-0.5499878,0-1-0.4500122-1-1S41.6799927,20.2850037,42.2299805,20.2850037z M42.2299805,27.065033H56.25c0.5599976,0,1,0.4500122,1,1c0,0.5599976-0.4400024,1-1,1H42.2299805c-0.5499878,0-1-0.4400024-1-1C41.2299805,27.5150452,41.6799927,27.065033,42.2299805,27.065033z M42.2299805,33.855011H56.25c0.5599976,0,1,0.4500122,1,1s-0.4400024,1-1,1H42.2299805c-0.5499878,0-1-0.4500122-1-1S41.6799927,33.855011,42.2299805,33.855011z"/>
    </g>
</svg>
